<?xml version="1.0" standalone="no"?><!DOCTYPE svg PUBLIC "-//W3C//DTD SVG 1.1//EN" "http://www.w3.org/Graphics/SVG/1.1/DTD/svg11.dtd"><svg class="icon" width="200px" height="200.00px" viewBox="0 0 1024 1024" version="1.1" xmlns="http://www.w3.org/2000/svg"><path d="M478.208 649.216L358.4 819.2l-30.72-81.92h-81.92l104.448-142.336c20.48 12.288 41.984 14.336 57.344 17.408 5.12 1.024 11.264 2.048 14.336 2.048 2.048 1.024 7.168 5.12 10.24 8.192 12.288 8.192 27.648 20.48 46.08 26.624z m195.584-54.272c-20.48 12.288-41.984 14.336-57.344 17.408-5.12 1.024-12.288 2.048-15.36 2.048-2.048 1.024-7.168 5.12-10.24 8.192-11.264 8.192-25.6 20.48-45.056 26.624L665.6 819.2l30.72-81.92h81.92L673.792 594.944zM512 327.68c-39.936 0-71.68 31.744-71.68 71.68s31.744 71.68 71.68 71.68 71.68-31.744 71.68-71.68-31.744-71.68-71.68-71.68z m194.56 71.68c0 24.576-26.624 44.032-35.84 65.536-9.216 22.528-4.096 55.296-21.504 71.68-16.384 16.384-49.152 12.288-71.68 21.504-21.504 9.216-40.96 35.84-65.536 35.84s-44.032-26.624-65.536-35.84c-22.528-9.216-55.296-4.096-71.68-21.504-16.384-16.384-12.288-49.152-21.504-71.68-9.216-21.504-35.84-40.96-35.84-65.536 0-24.576 26.624-44.032 35.84-65.536 9.216-22.528 4.096-55.296 21.504-71.68 16.384-16.384 49.152-12.288 71.68-21.504 21.504-9.216 40.96-35.84 65.536-35.84s44.032 26.624 65.536 35.84c22.528 9.216 55.296 4.096 71.68 21.504 16.384 16.384 12.288 49.152 21.504 71.68 9.216 21.504 35.84 40.96 35.84 65.536z m-61.44 0c0-73.728-59.392-133.12-133.12-133.12s-133.12 59.392-133.12 133.12 59.392 133.12 133.12 133.12 133.12-59.392 133.12-133.12z" fill="#ea9518" /></svg>